<svg xmlns="http://www.w3.org/2000/svg" xmlns:xlink="http://www.w3.org/1999/xlink" viewBox="0 0 1479.93 452.34"><defs><style>.cls-1{fill:#133a60;}.cls-2{clip-path:url(#clip-path);}.cls-3{clip-path:url(#clip-path-2);}</style><clipPath id="clip-path"><rect class="cls-1" y="81.44" width="41.41" height="289.38"/></clipPath><clipPath id="clip-path-2"><rect class="cls-1" x="165.63" y="81.44" width="41.41" height="289.38"/></clipPath></defs><g id="Capa_2" data-name="Capa 2"><g id="Capa_1-2" data-name="Capa 1"><path class="cls-1" d="M289.39,328.12V227.66h20.44v40h40.3v-40h20.29V328.12H350.13V284.65h-40.3v43.47Z"/><path class="cls-1" d="M442.38,315.88h-.29q-8.62,14-25.47,14-11.81,0-18.93-7.85t-7.12-20.94V254h19v38.42q0,10.66,3,16.12T423.53,314a15,15,0,0,0,12.81-6.55q4.74-6.54,4.75-16.47V254h19.14v52.1q0,15.82.72,22H443Q442.38,322.07,442.38,315.88Z"/><path class="cls-1" d="M496.93,266.66h.29a25.48,25.48,0,0,1,10.29-10.5A28.72,28.72,0,0,1,522,252.27a23.29,23.29,0,0,1,13.39,3.89A18.4,18.4,0,0,1,543,267a27.07,27.07,0,0,1,10.79-10.87,30.78,30.78,0,0,1,15.11-3.81q24.33,0,24.33,32.67v43.18H573.79V287q0-19.27-12.38-19.28-7,0-11.3,6.33t-4.25,17.42v36.7H526.43V283.36c0-4.7-1-8.5-3.16-11.37a10.42,10.42,0,0,0-8.92-4.32q-6.78,0-11.3,6.48t-4.54,16.55v37.42H479.23V277q0-13.09-.72-23h18Q496.94,258.74,496.93,266.66Z"/><path class="cls-1" d="M630.06,316.17h-.29q0,6.19-.57,11.95H611.35q.72-7.77.72-22.17V219.31h19v25.62q0,12.09-.43,20.58h.28q8.79-13.24,24.9-13.24,14.11,0,22.46,10.58t8.34,27.56q0,17.56-8.7,28.5t-23.54,10.94Q638,329.85,630.06,316.17Zm19.58-48.93A15.94,15.94,0,0,0,636.32,274q-5.12,6.76-5.11,17.13t5,17.05a15.78,15.78,0,0,0,13.24,6.7,14.93,14.93,0,0,0,12.88-6.62q4.68-6.63,4.68-17.27,0-10.8-4.53-17.28A14.82,14.82,0,0,0,649.64,267.24Z"/><path class="cls-1" d="M765.35,296.45H715.7a17,17,0,0,0,6.47,13.6q6.33,5.11,16.41,5.12a39.81,39.81,0,0,0,21.59-6.05l.29,15.83q-10.23,4.89-24.18,4.9-18.42,0-29.36-10.37T696,290.7q0-16.84,10.29-27.64t26.84-10.79q32.53,0,32.53,39.58A33,33,0,0,1,765.35,296.45Zm-49.94-13.24h32.53q0-17.26-15.55-17.27a16.22,16.22,0,0,0-11.51,4.46Q716.13,274.87,715.41,283.21Z"/><path class="cls-1" d="M797.45,268.1h.28q6.35-15.83,21.31-15.83a19.53,19.53,0,0,1,6.33.86l-.43,16.55a20.93,20.93,0,0,0-6.62-1q-19.29,0-19.29,29.21v30.23H779.46V276q0-14.25-.72-22h18.13Q797.44,260.62,797.45,268.1Z"/><path class="cls-1" d="M849,268.24H834.72V254h14.54V238.45l18.14-6.19V254h17.7v14.24H867.4v28.93q0,8.79,2.37,12.52t9.14,3.75a22.07,22.07,0,0,0,7.05-1.16l.43,14.83A39.44,39.44,0,0,1,873.15,329q-12.66,0-18.42-6.62T849,301.06Z"/><path class="cls-1" d="M941.66,252.27q17.13,0,27.78,10.72t10.65,28.28q0,17.28-10.8,27.92t-28.21,10.66q-17.26,0-28.13-10.73t-10.87-28q0-17.85,10.87-28.36T941.66,252.27Zm-.58,14.25q-8.64,0-13.53,6.47t-4.89,18.28q0,11,5,17.42a15.9,15.9,0,0,0,13.31,6.48,16.43,16.43,0,0,0,13.74-6.63q5.12-6.62,5.11-18t-5-17.7Q949.87,266.52,941.08,266.52Z"/><path class="cls-1" d="M1062.27,227.66,1078,275.58q4.6,14.25,8.5,29.8h.28q6.91-23.75,8.93-29.8l16.12-47.92h31.52V328.12h-19.43V279q0-19.57.43-36.85H1124q-1.15,3.75-9.79,31.38l-19.43,54.55h-18.13l-18.71-54q-4.62-13.09-9.79-32h-.29q.44,17.28.43,36.85v49.08h-18.56V227.66Z"/><path class="cls-1" d="M1198.56,252.27q17.13,0,27.78,10.72T1237,291.27q0,17.28-10.79,27.92T1198,329.85q-17.28,0-28.14-10.73t-10.87-28q0-17.85,10.87-28.36T1198.56,252.27Zm-.57,14.25q-8.64,0-13.53,6.47t-4.9,18.28q0,11,5,17.42a15.92,15.92,0,0,0,13.31,6.48,16.46,16.46,0,0,0,13.75-6.63q5.1-6.62,5.11-18t-5-17.7Q1206.77,266.52,1198,266.52Z"/><path class="cls-1" d="M1251.67,328.12V219.31H1271V328.12Z"/><path class="cls-1" d="M1310.39,239.89H1291.1V221.47h19.29Zm-19.29,88.23V254h19.29v74.12Z"/><path class="cls-1" d="M1348.1,266.37h.29q8.63-14.1,24.61-14.1,26.63,0,26.62,32.67v43.18h-19v-35.7c0-3.35-.06-6.06-.15-8.13a39.67,39.67,0,0,0-.93-6.62,15.56,15.56,0,0,0-2.16-5.47,10.69,10.69,0,0,0-3.89-3.24,13.66,13.66,0,0,0-6.26-1.29,15.62,15.62,0,0,0-8.78,2.66,18.82,18.82,0,0,0-6.33,7q-3.17,6.19-3.17,17.27v33.54h-19V277q0-13.09-.72-23h18.28Q1348.09,260.33,1348.1,266.37Z"/><path class="cls-1" d="M1421.21,273l-.72-15q11.09-5.74,26.63-5.75,32.09,0,32.09,30.22c0,1.83,0,5.47-.14,10.94s-.14,9.17-.14,11.08q0,12.24,1,23.61h-16.84a49.9,49.9,0,0,1-.28-5.9q0-1.87.28-6.48h-.28q-8.36,13.81-25.48,13.82-10.93,0-17.84-6.19t-6.91-16.84a20,20,0,0,1,9.85-17.92q9.87-6.25,28.29-6.26,5.33,0,10.5.43,0-8.49-4.17-12.45t-13.24-4A43.62,43.62,0,0,0,1421.21,273Zm40.3,21a61.76,61.76,0,0,0-6.33-.29q-11.81,0-17.7,2.73a9.34,9.34,0,0,0-5.91,9.07q0,4.89,3,7.49c2,1.72,4.84,2.59,8.49,2.59a17.55,17.55,0,0,0,13.24-5.4Q1461.51,304.8,1461.51,294Z"/><path class="cls-1" d="M344.88,126.78l-.95,8.41a32.86,32.86,0,0,0-15.24-3.26q-12.92,0-21.07,8.25t-8.14,21.17q0,13.35,8.41,21.49T329.64,191a37.82,37.82,0,0,0,14.82-2.84l.63,8.51A45,45,0,0,1,329.54,199q-17.78,0-28.64-10T290,161.35q0-16.28,11-26.74t27.9-10.46Q338.47,124.15,344.88,126.78Z"/><path class="cls-1" d="M397.32,173.33H359.07q.09,8.83,5.3,13.87t13.82,5.05a31.59,31.59,0,0,0,15.13-3.89l.32,7.88a38.93,38.93,0,0,1-15.87,3.16q-13,0-20.23-7.52t-7.2-20.75q0-12.51,6.89-20t18-7.52q10.5,0,16.39,6.57t5.89,19.49C397.53,170.57,397.46,171.79,397.32,173.33Zm-38-6.62h29.84q0-8.19-3.73-12.35T375,150.21a14.6,14.6,0,0,0-10.83,4.37Q359.91,158.93,359.28,166.71Z"/><path class="cls-1" d="M416.55,154h.21q6.3-10.41,18.18-10.41,10.5,0,14.92,6.31t4.41,17.65v30.69h-8.61V170.92q0-10.2-2.63-15.19t-10.09-5a14.27,14.27,0,0,0-11.61,5.31q-4.36,5.31-4.36,16v26.17h-8.62V160.72q0-10.29-.53-16h8.31C416.41,148.11,416.55,151.2,416.55,154Z"/><path class="cls-1" d="M480.55,129.83v15.23h14.29v6.83H480.55v26.49q0,6.83,2,10.24t7.25,3.42a13.91,13.91,0,0,0,5.68-1.26l.31,6.83a25.73,25.73,0,0,1-7.77,1.26q-8.94,0-12.4-4.73t-3.47-13.77V151.89H460.26v-6.83h11.88v-12.4Z"/><path class="cls-1" d="M512.49,154.42h.21a18.36,18.36,0,0,1,6-7.83,14.51,14.51,0,0,1,8.94-3,16.17,16.17,0,0,1,4.83.63v7.89a16.6,16.6,0,0,0-4.94-.64,12.45,12.45,0,0,0-10.77,5.63q-3.94,5.63-3.94,15.29v25.85h-8.62V160.72q0-10.29-.53-16h8.41A90.72,90.72,0,0,1,512.49,154.42Z"/><path class="cls-1" d="M562.83,143.59q11.45,0,18.81,7.88T589,171.76q0,12.28-7.41,20t-19.18,7.68q-11.67,0-19.13-7.73t-7.46-19.91q0-12.51,7.51-20.34T562.83,143.59Zm-.63,7a15.45,15.45,0,0,0-12.56,5.84q-4.78,5.82-4.78,15.29t4.83,15a17.14,17.14,0,0,0,25.43,0q4.83-5.67,4.84-15t-4.89-15.24A16,16,0,0,0,562.2,150.63Z"/><path class="cls-1" d="M637.12,124.89l19,48.76q2.94,7.77,5.14,15.34h.21q2.31-7.56,5.26-15.24l18.6-48.86h14.71v73.35h-9v-49.5q0-11.76.21-17.34H691q-1.89,5.47-5.36,14.4l-20.59,52.44h-8.41l-20.39-51.39q-3.46-8.82-5.36-15.45h-.21q.21,5.58.21,17.34v49.5H622.1V124.89Z"/><path class="cls-1" d="M758.81,173.33H720.56q.11,8.83,5.31,13.87t13.82,5.05a31.62,31.62,0,0,0,15.13-3.89l.32,7.88a39,39,0,0,1-15.87,3.16q-13,0-20.23-7.52t-7.2-20.75q0-12.51,6.88-20t18-7.52q10.5,0,16.39,6.57T759,169.65C759,170.57,759,171.79,758.81,173.33Zm-38-6.62h29.85q0-8.19-3.73-12.35t-10.35-4.15a14.58,14.58,0,0,0-10.83,4.37Q721.41,158.93,720.77,166.71Zm30.79-47.92-13,18.6h-6.09l9.88-18.6Z"/><path class="cls-1" d="M815.56,118.79v63.27q0,10.5.53,16.18h-8q-.32-4.41-.31-9.77h-.21q-6.32,10.92-18.39,10.93-10.83,0-17.08-7.57T765.85,172q0-12.61,6.36-20.5t17.08-7.88a21.49,21.49,0,0,1,10.61,2.63,17.34,17.34,0,0,1,7.15,7.25h.21q-.32-4.62-.32-13.34V118.79Zm-24.9,31.84a13.57,13.57,0,0,0-11.41,5.89q-4.35,5.88-4.36,15.24,0,8.82,4.31,14.71a13.51,13.51,0,0,0,11.46,5.88,14.43,14.43,0,0,0,11.66-5.88q4.73-5.88,4.73-14.71,0-9.15-4.57-15.14A14.23,14.23,0,0,0,790.66,150.63Z"/><path class="cls-1" d="M839.63,123.94v9.88H830v-9.88Zm-.53,20.81v53.49h-8.62V144.75Z"/><path class="cls-1" d="M889,145.9l-.63,7.68a26.42,26.42,0,0,0-10.62-2.11,17.65,17.65,0,0,0-13.45,5.47q-5.15,5.46-5.15,14.29,0,9,5.1,14.66t13.61,5.62a24.86,24.86,0,0,0,11.24-2.73l.63,7.78a31.1,31.1,0,0,1-12.4,2.31q-12.51,0-19.91-7.46T850,171.55q0-12.09,7.51-19.81T877.25,144A33,33,0,0,1,889,145.9Z"/><path class="cls-1" d="M921.28,143.59q11.44,0,18.81,7.88t7.36,20.29q0,12.28-7.41,20t-19.18,7.68q-11.67,0-19.13-7.73t-7.46-19.91q0-12.51,7.51-20.34T921.28,143.59Zm-.63,7a15.45,15.45,0,0,0-12.56,5.84q-4.79,5.82-4.78,15.29t4.83,15a17.14,17.14,0,0,0,25.43,0q4.83-5.67,4.84-15t-4.89-15.24A16,16,0,0,0,920.65,150.63Z"/><rect class="cls-1" y="81.44" width="41.41" height="289.38"/><g class="cls-2"><rect class="cls-1" y="81.44" width="41.41" height="289.38"/></g><rect class="cls-1" x="165.63" y="81.44" width="41.41" height="289.38"/><g class="cls-3"><rect class="cls-1" x="165.63" y="81.44" width="41.41" height="289.38"/></g><rect class="cls-1" x="82.96" width="41.27" height="205.61"/><rect class="cls-1" x="82.96" y="246.73" width="41.27" height="205.61"/></g></g></svg>