<svg xmlns="http://www.w3.org/2000/svg" xmlns:xlink="http://www.w3.org/1999/xlink" viewBox="0 0 294.26 364.09"><defs><style>.cls-1,.cls-2{fill:#15152d;}.cls-1{filter:url(#luminosity-invert);}.cls-3{fill:#facec1;}.cls-10,.cls-14,.cls-4,.cls-9{fill:none;stroke-linecap:round;stroke-linejoin:round;}.cls-4{stroke:#f18c79;}.cls-5{fill:#192e35;}.cls-6{fill:#38a1da;}.cls-7{fill:#f18c79;}.cls-8{fill:#252653;}.cls-9{stroke:#252653;}.cls-10{stroke:#1f1c3d;}.cls-11{mask:url(#mask);}.cls-12{fill:#fef7fa;}.cls-13{fill:#fff;}.cls-14{stroke:#fff;}.cls-15{fill:#fbfbfb;}.cls-16{fill:#c3171a;}</style><filter id="luminosity-invert" filterUnits="userSpaceOnUse" color-interpolation-filters="sRGB"><feColorMatrix values="-1 0 0 0 1 0 -1 0 0 1 0 0 -1 0 1 0 0 0 1 0"/></filter><mask id="mask" x="0" y="35.1" width="280.62" height="328.99" maskUnits="userSpaceOnUse"><path class="cls-1" d="M196.31,137.36c51.94,0,82,44.59,84.1,76.68,4.12,63.48-51.37,143.73-135.83,143.73-97.29,0-129.66-21.71-142-79.42-13.46-62.79,28.85-93.17,65.13-93.17C136.27,185.18,144.37,137.36,196.31,137.36Z"/></mask></defs><g id="Capa_2" data-name="Capa 2"><g id="Capa_2-2" data-name="Capa 2"><path class="cls-2" d="M196.31,137.36c51.94,0,82,44.59,84.1,76.68,4.12,63.48-51.37,143.73-135.83,143.73-97.29,0-129.66-21.71-142-79.42-13.46-62.79,28.85-93.17,65.13-93.17C136.27,185.18,144.37,137.36,196.31,137.36Z"/><path class="cls-3" d="M94.08,286.8,92.3,296.94a17.46,17.46,0,0,0,6.12,16.47l8.21,6.75,8.12-27.55a24.12,24.12,0,0,0,.72-3.33,23.07,23.07,0,0,0,.24-3.32,23.39,23.39,0,0,0-1.47-8.16,3.25,3.25,0,0,0-.44-.82l-3.91-5.71-10.6-15.43-18.11,17.1Z"/><path class="cls-4" d="M99.43,294.16l2.34,17a2.92,2.92,0,0,0,2.54,2.51h0a2.93,2.93,0,0,0,3.23-2.32l3-14.87"/><path class="cls-5" d="M201.91,171.61C184.15,181.69,93,197.77,83.36,191.53s-.72-15.12-.72-15.12c-5-4-13.92-15.6-1.2-28.8s21.83-5.28,15.12-23.76,13.19-24.72,6.71-39.7,2.81-39.4,32.64-47.65a38.38,38.38,0,0,1,5-1c12.79-1.72,29.48,2.19,37.92,17.59,6.17,11.27,5.3,30.07,4.34,45.19-.54,8.39-1.1,15.65-.5,19.84,1.68,11.76,14.16,4.8,19.92,12.48s-1.92,15.28-1.92,15.28C216.54,144.1,219.66,161.53,201.91,171.61Z"/><path class="cls-6" d="M200.37,157.69l-28.22-11.2-.34-5.58a5.28,5.28,0,0,0-5.33-5c-8.46.09-25.83.67-38.55,3.54a6.4,6.4,0,0,0-4.64,8.28,19.17,19.17,0,0,0,1.34,3.21l-5.22,2.36a67.27,67.27,0,0,0-16.89,10.95,64.82,64.82,0,0,0-5.86,5.86L57,215.05a24.12,24.12,0,0,0,.42,32.39l23.73,25.5,18.11-17.1-15.77-23,14.57-14.25,21.74-21.27h67.84s2.58,5.49,6,13.71c5.67-16.29,15.21-33.63,21.24-43.83A42.64,42.64,0,0,0,200.37,157.69Z"/><polygon class="cls-3" points="166.23 107.38 166.23 143.77 134.55 143.77 134.31 135.93 133.91 122.92 166.02 107.48 166.23 107.38"/><path class="cls-7" d="M166,107.48c-1.11,4.61-7.47,25.59-31.71,28.45l-.39-13Z"/><path class="cls-3" d="M176.47,79.14a33.14,33.14,0,0,1-9.28,23v7.67S151,129.37,133,129.37s-23-31.2-23-49.27h0c0-.32,0-.63,0-1a33.28,33.28,0,1,1,66.55,0Z"/><path class="cls-5" d="M183.21,98.25l-14.9-.79s-5.28-8.19-4.16-30c0,0-19.32-6-23.2-32,12.79-1.72,29.48,2.19,37.92,17.59C185,64.33,184.17,83.13,183.21,98.25Z"/><path class="cls-3" d="M166.8,92s10.29-12.9,17.09-5.58-8.37,36.1-18,22.85S166.8,92,166.8,92Z"/><path class="cls-4" d="M170.71,101.07s4-16.16,10.88-11.53"/><path class="cls-4" d="M175.46,91.92s4.06,5.47-1.34,11.08"/><path class="cls-6" d="M196.87,275c1.76,2.82,3.41,5.8,4.95,8.87l-86.35,5.44-3.88.25c.76-3.11,1.22-4.89,1.22-4.89l-.07-.05A9.13,9.13,0,0,1,109,274.21c.31-1,.61-2,.88-2.94,7.08-24.5.07-25.89-8.54-41.65a29.85,29.85,0,0,1-3.26-11c-1.9-16.81,6.62-36.46,6.62-36.46l-2.19-17.89a67.27,67.27,0,0,1,16.89-10.95l5.22-2.36a19.17,19.17,0,0,1-1.34-3.21,6.4,6.4,0,0,1,4.64-8.28c12.72-2.87,30.09-3.45,38.55-3.54a5.28,5.28,0,0,1,5.33,5l.34,5.58,28.22,11.2a42.64,42.64,0,0,1,14.5,9.55c-6,10.2-15.57,27.54-21.24,43.83a81.9,81.9,0,0,0-4.44,18.55c-1.49,15.53,2.45,25,6.16,30.33A15.42,15.42,0,0,1,196.87,275Z"/><path class="cls-4" d="M129.19,77.78S131.7,94.52,117,96.49l9.12,8.16"/><path class="cls-8" d="M123.15,85.28c0,1.89-.67,3.42-1.5,3.42s-1.5-1.53-1.5-3.42.67-3.42,1.5-3.42S123.15,83.39,123.15,85.28Z"/><path class="cls-8" d="M145.94,85.28c0,1.89-.68,3.42-1.51,3.42s-1.5-1.53-1.5-3.42.68-3.42,1.5-3.42S145.94,83.39,145.94,85.28Z"/><path class="cls-4" d="M147,104.65s-1.6,6.4-10.72,8"/><path class="cls-9" d="M114.55,73.06s3.52-4.48,10.08-.64"/><path class="cls-9" d="M136.31,72s7.52-4,12.8,0"/><path class="cls-10" d="M98.09,218.63c-1.9-16.81,6.62-36.46,6.62-36.46"/><path class="cls-10" d="M193.63,211.07c-5.64-11.14-10-16.66-10-16.66"/><line class="cls-10" x1="115.59" y1="283.7" x2="193.63" y2="275.28"/><line class="cls-10" x1="114.87" y1="294.16" x2="198.71" y2="288"/><path class="cls-10" d="M143.18,292.08l-12.56,4.53a5.31,5.31,0,0,0-2.36,8.3h0a5.31,5.31,0,0,0,8.91-.91Z"/><path class="cls-10" d="M143.18,292.08l8.65,9.76a5.13,5.13,0,0,0,8.16-.64h0a5.12,5.12,0,0,0-3.82-7.85Z"/><polyline class="cls-10" points="140.31 312.88 143.18 292.08 148.31 311.76"/><path class="cls-6" d="M235.19,248.88c-2.52-21.26-5.86-42.83-8.48-58.56a42.6,42.6,0,0,0-11.84-23.08c-6,10.2-15.57,27.54-21.24,43.83,5.83,14.16,14,36.42,15.32,52.53a189.52,189.52,0,0,1,.28,22.2l26.68-.75A198.57,198.57,0,0,0,235.19,248.88Z"/><g class="cls-11"><path class="cls-3" d="M94.08,286.8,92.3,296.94a17.46,17.46,0,0,0,6.12,16.47l8.21,6.75,8.12-27.55a24.12,24.12,0,0,0,.72-3.33,23.07,23.07,0,0,0,.24-3.32,23.39,23.39,0,0,0-1.47-8.16,3.25,3.25,0,0,0-.44-.82l-3.91-5.71-10.6-15.43-18.11,17.1Z"/><path class="cls-4" d="M99.43,294.16l2.34,17a2.92,2.92,0,0,0,2.54,2.51h0a2.93,2.93,0,0,0,3.23-2.32l3-14.87"/><path class="cls-5" d="M201.91,171.61C184.15,181.69,93,197.77,83.36,191.53s-.72-15.12-.72-15.12c-5-4-13.92-15.6-1.2-28.8s21.83-5.28,15.12-23.76,13.19-24.72,6.71-39.7,2.81-39.4,32.64-47.65a38.38,38.38,0,0,1,5-1c12.79-1.72,29.48,2.19,37.92,17.59,6.17,11.27,5.3,30.07,4.34,45.19-.54,8.39-1.1,15.65-.5,19.84,1.68,11.76,14.16,4.8,19.92,12.48s-1.92,15.28-1.92,15.28C216.54,144.1,219.66,161.53,201.91,171.61Z"/><path class="cls-6" d="M200.37,157.69l-28.22-11.2-.34-5.58a5.28,5.28,0,0,0-5.33-5c-8.46.09-25.83.67-38.55,3.54a6.4,6.4,0,0,0-4.64,8.28,19.17,19.17,0,0,0,1.34,3.21l-5.22,2.36a67.27,67.27,0,0,0-16.89,10.95,64.82,64.82,0,0,0-5.86,5.86L57,215.05a24.12,24.12,0,0,0,.42,32.39l23.73,25.5,18.11-17.1-15.77-23,14.57-14.25,21.74-21.27h67.84s2.58,5.49,6,13.71c5.67-16.29,15.21-33.63,21.24-43.83A42.64,42.64,0,0,0,200.37,157.69Z"/><polygon class="cls-3" points="166.23 107.38 166.23 143.77 134.55 143.77 134.31 135.93 133.91 122.92 166.02 107.48 166.23 107.38"/><path class="cls-7" d="M166,107.48c-1.11,4.61-7.47,25.59-31.71,28.45l-.39-13Z"/><path class="cls-3" d="M176.47,79.14a33.14,33.14,0,0,1-9.28,23v7.67S151,129.37,133,129.37s-23-31.2-23-49.27h0c0-.32,0-.63,0-1a33.28,33.28,0,1,1,66.55,0Z"/><path class="cls-5" d="M183.21,98.25l-14.9-.79s-5.28-8.19-4.16-30c0,0-19.32-6-23.2-32,12.79-1.72,29.48,2.19,37.92,17.59C185,64.33,184.17,83.13,183.21,98.25Z"/><path class="cls-3" d="M166.8,92s10.29-12.9,17.09-5.58-8.37,36.1-18,22.85S166.8,92,166.8,92Z"/><path class="cls-4" d="M170.71,101.07s4-16.16,10.88-11.53"/><path class="cls-4" d="M175.46,91.92s4.06,5.47-1.34,11.08"/><path class="cls-6" d="M196.87,275c1.76,2.82,3.41,5.8,4.95,8.87l-86.35,5.44-3.88.25c.76-3.11,1.22-4.89,1.22-4.89l-.07-.05A9.13,9.13,0,0,1,109,274.21c.31-1,.61-2,.88-2.94,7.08-24.5.07-25.89-8.54-41.65a29.85,29.85,0,0,1-3.26-11c-1.9-16.81,6.62-36.46,6.62-36.46l-2.19-17.89a67.27,67.27,0,0,1,16.89-10.95l5.22-2.36a19.17,19.17,0,0,1-1.34-3.21,6.4,6.4,0,0,1,4.64-8.28c12.72-2.87,30.09-3.45,38.55-3.54a5.28,5.28,0,0,1,5.33,5l.34,5.58,28.22,11.2a42.64,42.64,0,0,1,14.5,9.55c-6,10.2-15.57,27.54-21.24,43.83a81.9,81.9,0,0,0-4.44,18.55c-1.49,15.53,2.45,25,6.16,30.33A15.42,15.42,0,0,1,196.87,275Z"/><path class="cls-4" d="M129.19,77.78S131.7,94.52,117,96.49l9.12,8.16"/><path class="cls-8" d="M123.15,85.28c0,1.89-.67,3.42-1.5,3.42s-1.5-1.53-1.5-3.42.67-3.42,1.5-3.42S123.15,83.39,123.15,85.28Z"/><path class="cls-8" d="M145.94,85.28c0,1.89-.68,3.42-1.51,3.42s-1.5-1.53-1.5-3.42.68-3.42,1.5-3.42S145.94,83.39,145.94,85.28Z"/><path class="cls-4" d="M147,104.65s-1.6,6.4-10.72,8"/><path class="cls-9" d="M114.55,73.06s3.52-4.48,10.08-.64"/><path class="cls-9" d="M136.31,72s7.52-4,12.8,0"/><path class="cls-12" d="M222.54,363.59H97.81c2-24.26,10.57-60.92,13.78-74.06l90.23-5.69c.47.93.93,1.87,1.37,2.81,1.92,4.08,3.66,8.31,5.23,12.59a228.24,228.24,0,0,1,7.93,26.93A290.94,290.94,0,0,1,222.54,363.59Z"/><path class="cls-10" d="M98.09,218.63c-1.9-16.81,6.62-36.46,6.62-36.46"/><path class="cls-10" d="M193.63,211.07c-5.64-11.14-10-16.66-10-16.66"/><line class="cls-10" x1="115.59" y1="283.7" x2="193.63" y2="275.28"/><path class="cls-3" d="M229.1,327.91c.32,14.48-3.92,24.4-3.92,24.4v4.45a6.83,6.83,0,0,1-6.84,6.83h-14.9a6.84,6.84,0,0,1-6.79-6l-1-8.29a14.42,14.42,0,0,1,1.5-8.29l8.38-16.24s1.71-11.18,2.84-25.48c.34-4.27.63-8.82.81-13.44l26.69-.76A230.21,230.21,0,0,1,229.1,327.91Z"/><line class="cls-4" x1="218.96" y1="363.56" x2="217.5" y2="351.47"/><line class="cls-4" x1="212.36" y1="363.59" x2="209.71" y2="351.47"/><line class="cls-4" x1="204.79" y1="363.59" x2="202.15" y2="350.75"/><line class="cls-10" x1="151.51" y1="321.68" x2="154.61" y2="363.59"/><line class="cls-10" x1="114.87" y1="294.16" x2="198.71" y2="288"/><path class="cls-10" d="M143.18,292.08l-12.56,4.53a5.31,5.31,0,0,0-2.36,8.3h0a5.31,5.31,0,0,0,8.91-.91Z"/><path class="cls-10" d="M143.18,292.08l8.65,9.76a5.13,5.13,0,0,0,8.16-.64h0a5.12,5.12,0,0,0-3.82-7.85Z"/><polyline class="cls-10" points="140.31 312.88 143.18 292.08 148.31 311.76"/><path class="cls-6" d="M235.19,248.88c-2.52-21.26-5.86-42.83-8.48-58.56a42.6,42.6,0,0,0-11.84-23.08c-6,10.2-15.57,27.54-21.24,43.83,5.83,14.16,14,36.42,15.32,52.53a189.52,189.52,0,0,1,.28,22.2l26.68-.75A198.57,198.57,0,0,0,235.19,248.88Z"/></g><path class="cls-6" d="M75.28,297.24l9.93,37.51a5.35,5.35,0,0,1-3.8,6.55l-35.48,9.39a5.35,5.35,0,0,1-6.55-3.81l-9.93-37.51a7.88,7.88,0,0,1-.2-.94,10.2,10.2,0,0,1,7.44-11.52L62.82,290A10.2,10.2,0,0,1,75.28,297.24Z"/><path class="cls-8" d="M70.56,297.49l9.29,35.09L38.49,343.53l-9-34.16a7.88,7.88,0,0,1-.2-.94Z"/><rect class="cls-13" x="31.47" y="308.27" width="37.03" height="12.65" transform="matrix(0.97, -0.26, 0.26, 0.97, -78.86, 23.27)"/><line class="cls-14" x1="70.55" y1="319.95" x2="56.56" y2="323.65"/><line class="cls-14" x1="71.6" y1="323.93" x2="49.64" y2="329.74"/><line class="cls-14" x1="72.66" y1="327.91" x2="50.7" y2="333.72"/><rect class="cls-8" x="28.52" y="281.5" width="39.63" height="13.15" rx="2.13" transform="translate(-72.12 21.97) rotate(-14.83)"/><line class="cls-10" x1="31.07" y1="288.38" x2="33.33" y2="296.91"/><line class="cls-10" x1="34" y1="287.61" x2="36.26" y2="296.13"/><line class="cls-10" x1="36.94" y1="286.83" x2="39.19" y2="295.35"/><line class="cls-10" x1="39.87" y1="286.05" x2="42.13" y2="294.58"/><line class="cls-10" x1="42.81" y1="285.28" x2="45.06" y2="293.8"/><line class="cls-10" x1="45.74" y1="284.5" x2="48" y2="293.02"/><line class="cls-10" x1="48.68" y1="283.72" x2="50.93" y2="292.25"/><line class="cls-10" x1="51.61" y1="282.95" x2="53.87" y2="291.47"/><line class="cls-10" x1="54.54" y1="282.17" x2="56.8" y2="290.69"/><line class="cls-10" x1="57.48" y1="281.39" x2="59.73" y2="289.92"/><line class="cls-10" x1="60.41" y1="280.62" x2="62.67" y2="289.14"/><line class="cls-10" x1="63.35" y1="279.84" x2="65.6" y2="288.36"/><path class="cls-5" d="M224.55,72.77c.1.1-5.6,5.88-12.74,12.9s-13,12.64-13.1,12.53,5.6-5.87,12.74-12.9S224.45,72.67,224.55,72.77Z"/><circle class="cls-15" cx="251.84" cy="42.63" r="42.42"/><path class="cls-5" d="M294.26,42.63s0-.23-.07-.69-.07-1.14-.12-2c0-.44-.06-.94-.09-1.48s-.17-1.13-.27-1.78-.21-1.32-.33-2.06a21.24,21.24,0,0,0-.55-2.31A40.5,40.5,0,0,0,288.14,21a42.12,42.12,0,0,0-10.75-12L275.56,7.7c-.64-.42-1.31-.81-2-1.22s-1.33-.86-2.06-1.19l-2.19-1-1.12-.53L267,3.28l-2.37-.86c-.81-.27-1.66-.44-2.49-.67a21.45,21.45,0,0,0-2.55-.58,40.57,40.57,0,0,0-5.34-.61c-.91,0-1.83-.13-2.75-.11l-2.79.14c-.47,0-.94,0-1.41.09L245.93.9c-.94.16-1.89.27-2.84.46A46.1,46.1,0,0,0,237.47,3,44.41,44.41,0,0,0,232,5.43c-.89.48-1.75,1.05-2.63,1.57-.43.28-.89.51-1.3.82l-1.24.93A47.08,47.08,0,0,0,222,12.82l-2.14,2.36-.54.59-.49.64-1,1.3-1,1.29-.85,1.39-.85,1.4-.42.7-.36.73c-.48,1-1,2-1.43,3l-1.15,3.12a45.51,45.51,0,0,0-2.18,13.3,44.86,44.86,0,0,0,2.18,13.31q.57,1.57,1.14,3.12c.48,1,1,2,1.43,3l.36.74.43.7.85,1.39.85,1.39,1,1.3,1,1.29.49.64.54.6L222,72.44a48.09,48.09,0,0,0,4.78,4.07l1.25.93c.41.31.87.54,1.3.82.88.52,1.74,1.09,2.63,1.57a43.13,43.13,0,0,0,5.5,2.42,46.1,46.1,0,0,0,5.62,1.65c.95.19,1.9.3,2.84.46l1.41.22c.47.06.94,0,1.41.09l2.79.14c.92,0,1.84-.07,2.75-.11a40.57,40.57,0,0,0,5.34-.61,21.45,21.45,0,0,0,2.55-.58c.84-.23,1.68-.4,2.49-.67L267,82l1.18-.43,1.11-.53,2.19-1c.73-.33,1.38-.8,2.06-1.19s1.35-.8,2-1.22l1.82-1.36a42.25,42.25,0,0,0,10.75-12A40.5,40.5,0,0,0,292.83,53c.19-.82.47-1.57.56-2.31s.22-1.43.32-2.07.21-1.22.27-1.77.06-1,.09-1.48q.07-1.3.12-2c0-.46.07-.69.07-.69s0,.23,0,.69-.05,1.14-.08,2c0,.44,0,.94-.06,1.48s-.16,1.14-.25,1.79-.19,1.33-.3,2.07A23.21,23.21,0,0,1,293,53a40.14,40.14,0,0,1-4.64,11.35,42.22,42.22,0,0,1-10.78,12.13l-1.83,1.38c-.65.43-1.33.82-2,1.24s-1.34.87-2.07,1.21l-2.21,1.06-1.13.54-1.18.44-2.4.88c-.81.27-1.66.45-2.5.68a25.34,25.34,0,0,1-2.58.59,41.54,41.54,0,0,1-5.39.64c-.92,0-1.85.12-2.78.11l-2.82-.14c-.48,0-1,0-1.43-.09l-1.42-.22c-1-.15-1.92-.26-2.87-.46a41.88,41.88,0,0,1-5.69-1.66,44.74,44.74,0,0,1-5.57-2.43c-.91-.49-1.77-1.06-2.66-1.59-.44-.28-.91-.51-1.32-.83l-1.26-.94a45.75,45.75,0,0,1-4.84-4.11l-2.18-2.38-.54-.6-.49-.65-1-1.31-1-1.31-.86-1.41-.86-1.41-.43-.71-.37-.75-1.45-3c-.39-1-.77-2.1-1.16-3.16a45.61,45.61,0,0,1-2.2-13.47,45.54,45.54,0,0,1,2.2-13.46c.39-1.06.78-2.11,1.16-3.16L214,23l.37-.75.43-.71.86-1.41.86-1.4,1-1.31,1-1.31.49-.65.55-.6,2.17-2.39a47.74,47.74,0,0,1,4.84-4.1l1.26-.94a15.31,15.31,0,0,1,1.32-.83c.89-.53,1.76-1.1,2.66-1.59a44.74,44.74,0,0,1,5.57-2.43A41.88,41.88,0,0,1,243,.91c.95-.2,1.92-.31,2.87-.46l1.42-.22c.47-.06,1-.06,1.42-.09L251.54,0c.93,0,1.86.08,2.77.11a41.13,41.13,0,0,1,5.39.64,24.17,24.17,0,0,1,2.58.59c.85.23,1.7.41,2.51.68l2.4.88,1.18.44,1.12.53,2.21,1.07c.74.34,1.39.82,2.08,1.21s1.35.81,2,1.24l1.84,1.38a42.14,42.14,0,0,1,10.77,12.12A40.37,40.37,0,0,1,293,32.25a23.21,23.21,0,0,1,.53,2.33l.3,2.07c.09.65.2,1.24.25,1.78s0,1,.06,1.49c0,.88.06,1.55.08,2S294.26,42.63,294.26,42.63Z"/><polygon class="cls-16" points="278.23 32.3 262.04 32.3 262.04 16.11 241.37 16.11 241.37 32.3 225.19 32.3 225.19 52.97 241.37 52.97 241.37 69.15 262.04 69.15 262.04 52.97 278.23 52.97 278.23 32.3"/></g></g></svg>