<svg width="287" height="41" viewBox="0 0 287 41" xmlns="http://www.w3.org/2000/svg" xmlns:xlink="http://www.w3.org/1999/xlink"><defs><path d="M60.75 35c0 2.75-2.25 5-5 5h-50c-2.75 0-5-2.25-5-5V5c0-2.75 2.25-5 5-5h50c2.75 0 5 2.25 5 5v30z" id="a"/><path d="M60.75 35c0 2.75-2.25 5-5 5h-50c-2.75 0-5-2.25-5-5V5c0-2.75 2.25-5 5-5h50c2.75 0 5 2.25 5 5v30z" id="c"/><rect id="e" width="61" height="40" rx="5"/></defs><g fill="none" fill-rule="evenodd"><path d="M286.75 35c0 2.75-2.25 5-5 5h-50c-2.75 0-5-2.25-5-5V5c0-2.75 2.25-5 5-5h50c2.75 0 5 2.25 5 5v30z" fill-rule="nonzero" fill="#5EC1EC"/><g transform="translate(226)"><mask id="b" fill="#fff"><use xlink:href="#a"/></mask><path d="M59.281 1.469A4.985 4.985 0 0 1 60.75 5v30a4.98 4.98 0 0 1-1.469 3.531A4.987 4.987 0 0 1 55.75 40h-50a4.98 4.98 0 0 1-3.531-1.469L59.281 1.469z" fill="#5BBBE6" fill-rule="nonzero" mask="url(#b)"/></g><g transform="translate(226)"><mask id="d" fill="#fff"><use xlink:href="#c"/></mask><path d="M18.305 24.922l-.457-1.74h-3.015l-.47 1.74h-2.755l3.028-9.318h3.345l3.065 9.318h-2.741zm-.977-3.797l-.4-1.523a53.047 53.047 0 0 1-.34-1.313 22.962 22.962 0 0 1-.264-1.155c-.037.216-.113.571-.225 1.066-.112.495-.361 1.471-.746 2.926l1.975-.001zm8.766 3.797l-1.898-6.685h-.057c.089 1.138.133 2.022.133 2.654v4.03h-2.221V15.64h3.338l1.937 6.59h.051l1.897-6.59h3.346v9.281h-2.305v-4.069c0-.211.004-.445.01-.704.006-.259.035-.891.086-1.898h-.057l-1.873 6.672h-2.387zm13.775 0h-5.51v-9.281h5.51v2.013h-3.004v1.46h2.781v2.012h-2.781v1.752h3.004v2.044zm9.985 0h-2.9l-1.811-2.9-1.789 2.9h-2.838l3.078-4.748-2.895-4.533h2.781l1.676 2.869 1.611-2.869h2.863l-2.939 4.729 3.163 4.552z" fill="#FFF" fill-rule="nonzero" mask="url(#d)"/></g><g fill-rule="nonzero"><path d="M152.75 11V6c0-2.75 2.25-5 5-5h48c2.75 0 5 2.25 5 5v5" fill="#5565AF"/><path d="M210.75 31v5c0 2.75-2.25 4-5 4h-48c-2.75 0-5-1.25-5-4v-5" fill="#E6A124"/><path d="M169.137 24.379c.406-1.15.691-1.887.859-2.211l3.375-6.875h2.469l-5.844 11.422h-2.609l-.992-11.422h2.305l.398 6.875c.02.234.031.582.031 1.039a22.43 22.43 0 0 1-.047 1.172h.055zm5.672 2.336l2.438-11.422h2.383l-2.438 11.422h-2.383zm12.125-3.375c0 1.09-.387 1.949-1.156 2.582-.771.633-1.816.949-3.133.949-1.152 0-2.078-.234-2.781-.703v-2.141c1.004.562 1.938.844 2.797.844.582 0 1.039-.109 1.367-.332.328-.221.492-.523.492-.91 0-.223-.035-.42-.105-.59a1.727 1.727 0 0 0-.301-.473c-.131-.146-.453-.41-.969-.797-.719-.517-1.225-1.025-1.516-1.532a3.197 3.197 0 0 1-.438-1.633c0-.672.16-1.271.484-1.801.322-.528.781-.939 1.379-1.234.596-.294 1.281-.441 2.059-.441 1.129 0 2.164.258 3.102.773l-.852 1.82c-.812-.385-1.562-.578-2.25-.578-.434 0-.787.117-1.062.352-.277.234-.414.545-.414.93 0 .318.086.596.258.832.172.237.557.551 1.156.941.629.417 1.102.877 1.414 1.379.312.505.469 1.091.469 1.763zm7.664.656h-3.695l-1.344 2.719h-2.5l5.984-11.469h2.914l1.148 11.469h-2.32l-.187-2.719zm-.118-2.031l-.203-2.734a25.514 25.514 0 0 1-.078-1.977v-.281c-.23.625-.514 1.287-.852 1.984l-1.469 3.008h2.602z" fill="#5565AF"/><path d="M209.294 1a5.1 5.1 0 0 1 1.456 3.574v30.365a5.096 5.096 0 0 1-1.456 3.574A4.89 4.89 0 0 1 205.795 40H156.25a4.884 4.884 0 0 1-3.499-1.487L209.294 1z" fill="#FFF" opacity=".04"/></g><g fill-rule="nonzero"><path d="M136.75 36c0 2.75-2.25 5-5 5h-50c-2.75 0-5-2.25-5-5V6c0-2.75 2.25-5 5-5h50c2.75 0 5 2.25 5 5v30z" fill="#5565AF"/><path d="M135.281 2.469A4.985 4.985 0 0 1 136.75 6v30a4.98 4.98 0 0 1-1.469 3.531A4.987 4.987 0 0 1 131.75 41h-50a4.98 4.98 0 0 1-3.531-1.469l57.062-37.062z" fill="#FFF" opacity=".04"/><path d="M106.75 14.4a9.97 9.97 0 0 0-7.5-3.4c-5.522 0-10 4.477-10 10 0 5.521 4.478 10 10 10 2.99 0 5.667-1.32 7.5-3.401a9.944 9.944 0 0 1-2.5-6.599c0-2.534.948-4.838 2.5-6.6z" fill="#EA564B"/><path d="M106.75 14.4a9.948 9.948 0 0 0-2.5 6.6c0 2.533.948 4.837 2.5 6.599a9.944 9.944 0 0 0 2.5-6.599 9.946 9.946 0 0 0-2.5-6.6z" fill="#EA564B"/><path d="M114.25 11a9.97 9.97 0 0 0-8.644 5h2.288c.364.625.647 1.299.871 2h-4.044a9.898 9.898 0 0 0-.419 2h4.879c.034.33.068.66.068 1 0 .338-.02.671-.053 1h-4.895c.069.691.216 1.357.419 2h4.056a10.017 10.017 0 0 1-.886 2h-2.285a9.968 9.968 0 0 0 8.644 5c5.522 0 10-4.479 10-10 .001-5.523-4.477-10-9.999-10z" fill="#E9D419"/></g><g transform="translate(0 1)"><use fill="#FFF" xlink:href="#e"/><rect stroke="#788995" stroke-width="2" x="1" y="1" width="59" height="38" rx="5"/><path d="M9 28h43" stroke="#788995" stroke-width="2" stroke-linecap="square"/><rect fill="#788995" x="8" y="12" width="10" height="7" rx="3"/></g></g></svg>
