<?xml version="1.0" encoding="utf-8"?>
<!-- Generator: Adobe Illustrator 21.0.0, SVG Export Plug-In . SVG Version: 6.00 Build 0)  -->
<svg version="1.1" id="Layer_1" xmlns="http://www.w3.org/2000/svg" xmlns:xlink="http://www.w3.org/1999/xlink" x="0px" y="0px"
	 viewBox="0 0 512 512" style="enable-background:new 0 0 512 512;" xml:space="preserve">
<style type="text/css">
	.st0{opacity:0.2;fill:#D4E1F4;}
	.st1{fill:#17234D;}
	.st2{fill:#027FFF;}
</style>
<title>heart with plus</title>
<path class="st0" d="M415.6,414.5c-58.5,0-105.9-47.4-105.9-105.9c0-39.8,22.4-76.3,57.9-94.4c-57.6,10-96.3,64.8-86.3,122.4
	c10,57.6,64.8,96.3,122.4,86.3c10.5-1.8,20.6-5.2,30.1-10C427.7,414,421.6,414.5,415.6,414.5z"/>
<path class="st1" d="M123.5,390.7c57.4,57.5,115.6,95.4,116.2,95.8c2.3,1.5,5.3,1.5,7.6,0c0.4-0.3,39.2-25.7,84.4-66.1
	c2.9-2.6,3.1-7,0.5-9.9s-7-3.1-9.9-0.5c-25,22.4-51.3,43.2-78.9,62.3c-39.4-27.2-76.3-57.8-110.2-91.6c-32.9-33-59.1-66.1-77.9-98.3
	c-23.2-39.8-34.9-78.2-34.9-114.2c0-59.9,28.3-129.9,108-129.9c59.6,0.1,107.9,48.4,108,108.1c0,3.9,3.1,7,7,7s7-3.1,7-7
	c0.1-59.6,48.4-107.9,108-108c41.6,0,66.9,22.7,80.7,41.7c17.3,23.8,27.3,55.9,27.3,88.1c0,20.7-3.9,42.3-11.7,64.4
	c-1.4,3.6,0.4,7.7,4,9c3.6,1.4,7.7-0.4,9-4c0-0.1,0.1-0.2,0.1-0.3c8.3-23.6,12.5-46.8,12.5-69c0-69.7-42.8-143.8-122-143.8
	c-51.6,0.1-97.7,32.6-115,81.2c-17.3-48.7-63.3-81.2-115-81.3c-40.3,0-73.1,16.5-94.7,47.6C16.2,97.3,6.5,131.4,6.5,168.2
	c0,38.6,12.4,79.4,36.9,121.4C62.8,322.8,89.7,356.8,123.5,390.7z"/>
<path class="st2" d="M385.6,438.5c66.2,0,119.9-53.7,119.9-119.9s-53.7-119.9-119.9-119.9s-119.9,53.7-119.9,119.9c0,0,0,0,0,0
	C265.7,384.8,319.4,438.4,385.6,438.5z M385.6,212.7c58.5,0,105.9,47.4,105.9,105.9s-47.4,105.9-105.9,105.9
	s-105.9-47.4-105.9-105.9C279.7,260.1,327.1,212.7,385.6,212.7z"/>
<path class="st2" d="M327.5,343h34v34c0,3.9,3.1,7,7,7h32c3.9,0,7-3.1,7-7v-34h33c3.9,0,7-3.1,7-7v-32c0-3.9-3.1-7-7-7h-33v-33
	c0-3.9-3.1-7-7-7h-32c-3.9,0-7,3.1-7,7v33h-34c-3.9,0-7,3.1-7,7v32C320.5,339.9,323.6,343,327.5,343z M334.5,311h34c3.9,0,7-3.1,7-7
	v-33h18v33c0,3.9,3.1,7,7,7h33v18h-33c-3.9,0-7,3.1-7,7v34h-18v-34c0-3.9-3.1-7-7-7h-34V311z"/>
</svg>
