<?xml version="1.0" encoding="utf-8"?>
<!-- Generator: Adobe Illustrator 21.0.0, SVG Export Plug-In . SVG Version: 6.00 Build 0)  -->
<svg version="1.1" id="Layer_1" xmlns="http://www.w3.org/2000/svg" xmlns:xlink="http://www.w3.org/1999/xlink" x="0px" y="0px"
	 viewBox="0 0 512 512" style="enable-background:new 0 0 512 512;" xml:space="preserve">
<style type="text/css">
	.st0{opacity:0.2;fill:#D4E1F4;}
	.st1{fill:#17234D;}
	.st2{fill:#027FFF;}
</style>
<title>tooth with plus</title>
<path class="st0" d="M153.2,441.4c-29.9-30.5-36-138.8-34.9-198.1c0.4-19.6-11.4-46.3-24-74.5c-11.5-26-23.4-52.8-23.4-70.4
	c0-24.1,6.2-44.9,17.3-60.8C53,49.4,30.9,83,30.9,128.4c0,17.6,11.9,44.5,23.4,70.4c12.5,28.2,24.3,54.9,24,74.5
	c-1.1,59.2,5,167.6,34.9,198.1c5,5.1,10.3,7.6,16.2,7.6c0.7,0,7.4-0.8,20.3-29.1c1.2-2.6,2.4-5.4,3.6-8.3
	C153.3,441.5,153.2,441.5,153.2,441.4z"/>
<path class="st0" d="M357.7,420.3c-7.4-16.6-15.2-38.1-23.4-60.9c-25-69.5-41.8-111.6-63.3-111.6c-10.5,0-19.4,11.8-29.2,33.7
	c16.8,11.7,31.8,50.5,52.5,107.9c8.2,22.8,16,44.4,23.4,60.9c10.5,23.4,15.6,25.7,16.3,25.9c12.3-0.1,22.9-14.2,31-41.2
	C363,431.4,360.6,426.6,357.7,420.3z"/>
<path class="st1" d="M65.4,273.1c-0.3,13.1-0.6,59.7,5.2,106.7c6.3,50.9,17.6,85,33.7,101.4c7.7,7.8,16.5,11.8,26.2,11.8
	c21.2,0,36.8-41.8,60.5-110.1c8.4-24.2,16.3-47,24.1-64.5c11.3-25.6,16.8-26.7,17-26.7c1.3,0,8.3,1.4,21.8,30
	c9.4,19.9,19,46.6,28.3,72.4c22.8,63.2,35.5,96.1,52.8,96.1c24.2,0,41-25.9,51.3-79.3c7.9-41.3,10.4-90.1,12-122.4l0.3-5
	c0.2-3.9-2.7-7.2-6.6-7.4c-3.9-0.2-7.2,2.7-7.4,6.6c0,0,0,0,0,0.1l-0.3,5c-1.6,31.9-4,80.1-11.8,120.5c-8.5,44.4-21.5,67.9-37.4,68
	c-0.8-0.2-5.9-2.6-16.3-25.9c-7.4-16.6-15.2-38.1-23.4-60.9c-25-69.5-41.8-111.6-63.3-111.6c-18.4,0-31.9,36.4-54.3,100.6
	c-8.9,25.5-18.1,52-27,71.5c-12.9,28.3-19.6,29.1-20.3,29.1c-5.9,0-11.2-2.5-16.2-7.6c-29.9-30.5-36-138.8-34.9-198.1
	c0.4-19.6-11.4-46.3-24-74.5C43.9,172.9,32,146,32,128.4C32,71.4,66.8,33,118.6,33c13.5,0,34.4,6.6,54.6,13
	c22.2,7,43.2,13.7,58.8,13.7h0c15.6,0,36.6-6.6,58.8-13.6c20.2-6.4,41.1-13,54.6-13c33.6,0,59.2,14.3,74,41.3
	c1.9,3.4,6.2,4.6,9.5,2.7c3.3-1.9,4.5-6.1,2.7-9.4c-17.2-31.3-47.8-48.6-86.3-48.6c-15.6,0-36.6,6.6-58.8,13.6
	c-20.2,6.4-41.1,13-54.6,13h0c-13.5,0-34.4-6.6-54.6-13c-22.2-7-43.2-13.7-58.8-13.7c-29.5,0-54.8,10.6-73.1,30.7
	C27.5,69.5,18,96.8,18,128.4c0,20.6,12.5,48.8,24.6,76.1C53.9,230.1,65.7,256.6,65.4,273.1z"/>
<path class="st2" d="M374.1,51.7c-66.2,0-119.9,53.7-119.9,119.9s53.7,119.9,119.9,119.9c66.2,0,119.9-53.7,119.9-119.9c0,0,0,0,0,0
	C494,105.4,440.3,51.7,374.1,51.7z M374.1,277.5c-58.5,0-105.9-47.4-105.9-105.9S315.6,65.7,374.1,65.7S480,113.1,480,171.6
	c0,0,0,0,0,0C480,230.1,432.6,277.4,374.1,277.5z"/>
<path class="st2" d="M429,150h-33v-33c0-3.9-3.1-7-7-7h-32c-3.9,0-7,3.1-7,7v33h-34c-3.9,0-7,3.1-7,7v32c0,3.9,3.1,7,7,7h34v34
	c0,3.9,3.1,7,7,7h32c3.9,0,7-3.1,7-7v-34h33c3.9,0,7-3.1,7-7v-32C436,153.1,432.9,150,429,150z M422,182h-33c-3.9,0-7,3.1-7,7l0,0
	v34h-18v-34c0-3.9-3.1-7-7-7l0,0h-34v-18h34c3.9,0,7-3.1,7-7v-33h18v33c0,3.9,3.1,7,7,7h33V182z"/>
</svg>
