<?xml version="1.0" encoding="utf-8"?>
<!-- Generator: Adobe Illustrator 21.0.0, SVG Export Plug-In . SVG Version: 6.00 Build 0)  -->
<svg version="1.1" id="Layer_1" xmlns="http://www.w3.org/2000/svg" xmlns:xlink="http://www.w3.org/1999/xlink" x="0px" y="0px"
	 viewBox="0 0 512 512" style="enable-background:new 0 0 512 512;" xml:space="preserve">
<style type="text/css">
	.st0{opacity:0.2;fill:#D4E1F4;}
	.st1{fill:#D4E1F4;}
	.st2{fill:#027FFF;}
	.st3{fill:#17234D;}
</style>
<title>doctor</title>
<path class="st0" d="M243.2,342.9l-7.7-54.1l5.3-10.8c-6-1.2-11.8-3-17.3-5.6l-8,16.4l7.7,54.1c11.3,5,32,9.5,35.6,9.5
	c3.4-0.3,6.8-0.9,10.2-1.7C261.1,348.9,250.3,346,243.2,342.9z"/>
<path class="st0" d="M100,463.5v-77.2c0-21.4,22.3-42.9,60.8-59.7c-1.1-2.2-1.8-4.6-2.1-7.1C109.2,337.1,80,361.7,80,386.3v77.2
	c0,6.5,9.2,15.5,15.8,15.5h20C109.2,479,100,470,100,463.5z"/>
<path class="st1" d="M317.5,58.9c-2.7-0.7-5.4-1.1-8.2-1.2c1.8,1.7,4.3,2.3,6.7,1.6C316.6,59.2,317,59,317.5,58.9z"/>
<path class="st0" d="M243.9,256.8c-25-15.5-27.9-46.1-28.2-52.1c-0.1-3.8-3.2-6.8-7-6.8h-0.1c-8.7,0.1-21.4-13.5-26.3-34
	c-1.5-6.4,0.5-11.3,3.3-12.7c2.6-1.4,5.4,1.1,6.8,2.7c2.5,2.9,7,3.2,9.9,0.7c2.6-2.3,3.1-6.1,1.3-9c-2.4-6.1-5.4-44.2-5.4-51
	c0-30.2,21.9-55.9,51.7-60.8c-3.3-0.5-6.7-0.8-10-0.8c-34,0-61.6,27.6-61.6,61.6c0,6.8,2.9,44.9,5.4,51c2.1,3.3,1.1,7.6-2.2,9.7
	c-2.9,1.8-6.7,1.3-9-1.3c-1.4-1.6-4.1-4-6.8-2.7c-2.8,1.4-4.8,6.2-3.3,12.7c4.9,20.5,17.5,34.1,26.3,34h0.1c3.8,0,6.9,3,7,6.8
	c0.3,6,3.1,36.6,28.2,52.1c9.7,6,21.8,9,35.9,9c3.3,0,6.6-0.2,9.9-0.6C260.6,264.4,251.8,261.5,243.9,256.8z"/>
<path class="st2" d="M384.9,451.1c1.9,0.4,3.8,0.6,5.7,0.6c15.7,0,28.4-12.8,28.4-28.5c0-12.8-8.6-24.1-21-27.4
	c-1.2-29-8-58.8-18.6-80.9c-1.7-3.5-5.9-4.9-9.3-3.3s-4.9,5.9-3.3,9.3c9.7,20.2,16,47.6,17.2,74.6c-15.3,3.7-24.7,19-21.1,34.3
	C365.4,440.6,374,448.9,384.9,451.1L384.9,451.1z M376.3,420.3c1.4-6.7,7.3-11.6,14.1-11.6c1,0,1.9,0.1,2.9,0.3
	c7.8,1.6,12.9,9.2,11.3,17c-1.6,7.8-9.2,12.9-17,11.3C379.8,435.8,374.8,428.1,376.3,420.3C376.3,420.3,376.3,420.3,376.3,420.3
	L376.3,420.3z"/>
<path class="st2" d="M102.4,448.7c3.9,0.3,7.2-2.6,7.5-6.5c0.3-3.8-2.6-7.2-6.5-7.5c-2-0.1-3.7-1.8-3.8-3.8l14.5-50.4
	c0.1-0.5,0.2-1,0.3-1.4c0.2-2.3,2.1-4,4.4-3.8l24.9,1.8c2.3,0.2,4,2.1,3.8,4.4c0,0.5,0,1,0.1,1.5l7.3,51.9c-0.4,2-2.3,3.4-4.3,3.2
	c-3.9-0.3-7.2,2.7-7.5,6.5c-0.3,3.8,2.6,7.2,6.5,7.4c0.4,0,0.9,0,1.3,0c9.5,0,17.4-7.4,18-16.8c0-0.5,0-1-0.1-1.5l-7.3-52.2
	c0.2-9.7-7.2-17.8-16.8-18.5l-3.4-0.2c4.4-16.8,10.7-33.7,16.9-44.7c1.9-3.4,0.7-7.6-2.7-9.5s-7.6-0.7-9.5,2.7l0,0
	c-8.3,14.8-15,35.3-18.8,50.6l-7.4-0.5c-9.7-0.7-18.1,6.3-19.3,16l-14.6,50.6c-0.1,0.5-0.2,1-0.3,1.4C85,439.3,92.5,448,102.4,448.7
	z"/>
<path class="st3" d="M237.5,493c0.7,0.1,1.5,0.1,2.2,0h177.1c14.2,0,29.2-15.2,29.2-29.5v-77.2c0-31.6-31.9-61.6-85.4-80.5
	c-2.8-5.9-7.9-10.9-14.6-14.4c-2-1.1-16.7-6.3-29.7-10.9l-8-15.7c21.2-16.4,27.2-41.7,29-53.7c14.7-3.8,28.2-21.1,33.6-44
	c2.8-11.8-1.2-23-10-27.7c-2.2-1.2-4.7-1.9-7.2-2.1c4.3-14.8,8.4-34.4,8.4-38.9c0-30.2-24.5-54.7-54.7-54.7c-3.6,0-7.2,0.4-10.7,1.1
	c-27.5-31.4-75.3-34.6-106.7-7.1c-16.4,14.4-25.8,35.1-25.8,56.9c0,3.2,0.8,16,2,28.6c0.5,5.6,1,10,1.5,13.7c-3-0.1-5.9,0.6-8.5,2
	c-9.1,4.7-13.4,16.1-10.5,28.3v0c5.4,22.9,18.9,40.1,33.6,44c1.6,12.2,7.4,37.7,29.2,54.1l-8.3,16.9c-16.6,5.2-25.8,8.3-27.5,9.2
	c-5.5,2.7-10.2,6.9-13.4,12.1c-61.1,20-96.2,50.1-96.2,82.8v77.2c0,14.4,15.3,29.5,29.8,29.5L237.5,493z M244.6,479l-18.9-120.3
	c13,4.4,28.7,7.6,33.2,7.6c4.8,0,21.3-3.3,34.7-7.9L275,479H244.6z M223.2,342.9l-7.7-54.1l8-16.4c10.5,4.9,22.7,7.4,36.3,7.4
	c13.7,0,26-2.6,36.6-7.7l7.7,15.2l-8.1,55.1c-11.6,5.3-33.1,9.9-37.1,9.9C255.2,352.3,234.5,347.8,223.2,342.9z M359.9,328.2
	c1.2-2.1,2.1-4.4,2.6-6.8c43.1,16.6,69.5,41,69.5,64.9v77.2c0,6.7-8.7,15.5-15.2,15.5H293.6l63.1-100c4.8-6.9,6.9-14.9,5.6-21.5
	c-0.7-4.3-3.1-8-6.6-10.5c-2.4-1.5-5-2.8-7.6-3.8C352.7,338.8,356.7,333.7,359.9,328.2z M309.5,347.1l7.6-51.5
	c10.9,3.8,20.9,7.5,22.6,8.2c4.6,2.4,7.9,6,9,9.7c0.8,2.7,0.4,5.5-1,7.9c-5.7,10.3-17.5,19.1-17.6,19.2c-3.1,2.3-3.8,6.7-1.4,9.8
	c1,1.3,2.4,2.2,3.9,2.6c4.2,1.1,12.2,3.5,15.4,5.7c0.4,0.4,0.6,0.9,0.6,1.4c0.4,2.2-0.2,6.5-3.4,11c-0.1,0.1-0.1,0.2-0.2,0.3
	l-52,82.3L309.5,347.1z M195.7,204.7c-0.1-3.8-3.2-6.8-7-6.8h-0.1c-8.7,0.1-21.4-13.5-26.3-34c-1.5-6.4,0.5-11.3,3.3-12.7
	c2.6-1.4,5.4,1.1,6.8,2.7c2.5,2.9,7,3.2,9.9,0.7c2.6-2.3,3.1-6.1,1.3-9c-2.4-6.1-5.4-44.2-5.4-51c0-34,27.6-61.6,61.6-61.6
	c19.1,0,37.1,8.9,48.8,24c1.8,2.3,4.7,3.2,7.5,2.4c21.6-6.3,44.2,6.1,50.4,27.7c1.1,3.7,1.6,7.5,1.6,11.4c0,5.2-8.8,41.6-11.8,46.9
	c-2.2,3.1-1.5,7.5,1.6,9.8c2.8,2,6.7,1.6,9.1-0.9c1.2-1.2,4.2-4,7.2-2.4c2.5,1.4,4.6,5.8,3,12.2c-4.9,20.5-17.5,34.1-26.3,34
	c-3.8-0.1-7,2.9-7.1,6.7c-0.4,6-3.7,36.5-28.3,52c-9.7,6.1-21.7,9.2-35.8,9.2c-14.1,0-26.2-3-35.9-9
	C198.9,241.3,196,210.6,195.7,204.7z M172.9,313.5c1.1-3.7,4.4-7.3,9.1-9.7c1.7-0.7,10.7-3.7,20.5-6.8l7.7,54c0,0.2,0,0.3,0.1,0.5
	l16,101.4l-49.7-80.5c-0.1-0.1-0.1-0.2-0.2-0.3c-3-4.3-3.9-8.8-3.4-11.4c0-0.5,0.3-1.1,0.6-1.5c3.3-2.2,11.3-4.8,15.5-5.9
	c3.7-1,6-4.8,5-8.6c-0.4-1.5-1.3-2.9-2.6-3.8c-3.3-2.5-12.8-10.7-17.6-19.4C172.5,319.1,172.1,316.2,172.9,313.5z M80,463.5v-77.2
	c0-24.5,29.2-49.2,78.7-66.8c0.4,3.1,1.4,6.1,3,8.8c3.3,5.6,7.3,10.8,11.9,15.3c-2.7,1-5.3,2.3-7.8,3.9c-3.6,2.5-6,6.3-6.6,10.5
	c-1.3,6.8,0.8,14.9,5.6,21.8L226,479H95.8C89.2,479,80,470,80,463.5z"/>
</svg>
