<?xml version="1.0" standalone="no"?>
<!DOCTYPE svg PUBLIC "-//W3C//DTD SVG 20010904//EN"
 "http://www.w3.org/TR/2001/REC-SVG-20010904/DTD/svg10.dtd">
<svg version="1.0" xmlns="http://www.w3.org/2000/svg"
 width="498.000000pt" height="498.000000pt" viewBox="0 0 498.000000 498.000000"
 preserveAspectRatio="xMidYMid meet">
<metadata>
Created by potrace 1.11, written by Peter Selinger 2001-2013
</metadata>
<g transform="translate(0.000000,498.000000) scale(0.100000,-0.100000)"
fill="#000000" stroke="none">
<path d="M1719 4970 l-24 -5 0 -740 c1 -407 4 -753 8 -770 7 -30 13 -60 22
-105 2 -14 20 -82 39 -152 126 -458 365 -788 685 -948 64 -32 65 -32 40 -46
-42 -23 -102 -27 -507 -29 -333 -2 -407 -5 -457 -19 -257 -70 -454 -231 -565
-461 -229 -472 28 -1040 536 -1185 92 -27 177 -33 439 -32 121 0 230 -1 242
-4 13 -2 29 -21 44 -51 67 -140 210 -277 361 -346 156 -71 347 -88 513 -45 96
25 225 92 296 155 63 56 75 69 114 118 257 325 192 821 -140 1073 -376 284
-922 166 -1139 -248 l-35 -65 -253 1 c-300 1 -319 5 -395 80 -39 39 -55 64
-67 105 -45 161 58 321 217 335 29 3 223 6 432 8 209 2 396 7 415 10 155 32
331 126 441 235 76 75 169 222 198 312 10 32 19 39 63 54 294 96 542 353 702
729 56 130 115 327 141 471 4 22 10 51 12 65 8 44 9 1500 1 1501 -5 0 -213 0
-463 0 -250 0 -465 0 -478 0 l-22 -1 0 -290 c0 -159 3 -291 7 -291 5 -1 90 -2
191 -3 l182 -1 2 -405 c1 -454 -4 -502 -73 -709 -130 -390 -360 -582 -629
-526 -91 19 -159 58 -235 133 -113 112 -195 274 -261 513 l-32 114 -2 440 -2
440 191 0 191 0 0 293 c0 160 -2 292 -5 293 -30 3 -922 3 -941 -1z m1271
-4046 c151 -90 86 -327 -90 -327 -182 0 -241 247 -79 331 52 26 119 25 169 -4z"/>
</g>
</svg>
